<svg t="1653467246879" class="icon" viewBox="0 0 1024 1024" version="1.1" xmlns="http://www.w3.org/2000/svg" p-id="4095" width="128" height="128"><path d="M410.2 102.5H137c-6.1 0-11.1 5-11.1 11.1v804.5c0 6.1 5 11.1 11.1 11.1h296v-803c0-0.1-16.7-23.7-22.8-23.7z m188.1 165.3h-94.5c-6.7 0-23.6 16.9-23.6 23.6v614.1c0 6.7 15 23.6 21.7 23.6h109.7c6.7 0 12.1-5.4 12.1-12.1V291.8c0.1-6.7-18.7-24-25.4-24z m296-106.3H680.1c-6.1 0-11.1 4.9-11.1 11.1v101.5c0 0.5-0.2 1-0.3 1.5v653.5h225.6c6.1 0 11.1-5 11.1-11.1V172.6c0-6.1-5-11.1-11.1-11.1z" p-id="4096" fill="#58bef3"></path></svg>