<svg t="1653466647309" class="icon" viewBox="0 0 1170 1024" version="1.1" xmlns="http://www.w3.org/2000/svg" p-id="3029" width="128" height="128"><path d="M20.48 690.688c14.336 62.976 44.032 186.88 73.728 248.832 1.536 3.072 2.56 6.144 4.096 8.704 6.144 9.728 16.384 16.384 28.672 16.384 3.584 0 7.168-1.024 10.24-2.048 1.024-0.512 2.048-0.512 3.584-1.024 40.96-9.728 83.968-20.992 112.128-24.576 62.464-8.192 347.136 65.536 426.496 71.68s168.448-76.288 226.816-107.52c58.368-31.232 244.736-152.576 244.736-152.576s9.216-85.504-90.624-62.976c-99.84 22.528-253.952 107.52-253.952 107.52s-111.104 33.792-188.928 10.752c-54.272-15.872-125.952-39.936-154.112-68.096-26.624-26.624-23.552-53.248-1.024-49.664 46.08 7.168 223.744 24.064 272.384 9.216 48.128-14.848 75.264-72.192 54.272-107.52 0 0-62.976-3.584-208.384-35.84-145.92-32.256-181.76-54.784-244.736-27.136-48.64 21.504-156.16 85.504-285.184 118.784-22.016 4.608-34.816 26.112-30.208 47.104z m1048.064-604.16c0-39.424-31.744-71.168-71.168-71.168h-471.552c-39.424 0-71.68 31.744-71.68 71.168s31.744 71.168 71.168 71.168h471.552c39.424 0 71.68-31.744 71.68-71.168z m0 257.024c0-39.424-31.744-71.168-71.168-71.168h-471.552c-39.424 0-71.168 31.744-71.168 71.168S486.4 414.72 525.824 414.72h471.552c38.912 0 71.168-32.256 71.168-71.168z" p-id="3030" fill="#eeb173"></path></svg>