<svg t="1653546327256" class="icon" viewBox="0 0 1024 1024" version="1.1" xmlns="http://www.w3.org/2000/svg" p-id="4034" width="32" height="32"><path d="M509.952 10.24C232.448 10.24 8.192 234.496 8.192 512s224.256 501.76 501.76 501.76 501.76-224.256 501.76-501.76-224.256-501.76-501.76-501.76z m0 152.576c84.992 0 153.6 68.608 153.6 153.6s-68.608 153.6-153.6 153.6-153.6-68.608-153.6-153.6 68.608-153.6 153.6-153.6z m-1.024 698.368c-177.152 0-320.512-80.896-320.512-168.96S331.776 532.48 509.952 532.48c177.152 0 321.536 71.68 321.536 159.744S686.08 861.184 508.928 861.184z" p-id="4035"></path></svg>