<svg t="1653895678180" class="icon" viewBox="0 0 1024 1024" version="1.1" xmlns="http://www.w3.org/2000/svg" p-id="2845" width="32" height="32"><path d="M837.824 919.232 267.648 919.232c-67.52 0-122.176-54.656-122.176-122.176L145.472 634.176l81.472 0 0 53.248c0 83.072 67.264 150.4 150.4 150.4l350.848 0c83.008 0 150.4-67.328 150.4-150.4L878.592 336.576c0-83.072-67.392-150.4-150.4-150.4L377.344 186.176c-83.136 0-150.4 67.328-150.4 150.4l0 12.48L145.408 349.056 145.408 226.944c0-67.52 54.656-122.176 122.176-122.176l570.176 0C905.28 104.768 960 159.424 960 226.944l0 570.112C960 864.576 905.28 919.232 837.824 919.232zM471.232 308.352 715.648 512l-244.352 162.944L471.296 552.768 64 552.768 64 430.592l407.232 0L471.232 308.352z" p-id="2846"></path></svg>